<?xml version="1.0" standalone="no"?>
<!DOCTYPE svg PUBLIC "-//W3C//DTD SVG 20010904//EN"
 "http://www.w3.org/TR/2001/REC-SVG-20010904/DTD/svg10.dtd">
<svg version="1.0" xmlns="http://www.w3.org/2000/svg"
 width="200.000000pt" height="200.000000pt" viewBox="0 0 200.000000 200.000000"
 preserveAspectRatio="xMidYMid meet">

<g transform="translate(0.000000,200.000000) scale(0.100000,-0.100000)"
fill="#000000" stroke="none">
<path d="M384 1891 c-78 -36 -74 13 -74 -891 0 -903 -4 -852 74 -890 41 -19
59 -20 614 -20 620 0 611 -1 662 55 l25 27 3 631 2 631 -237 238 -238 238
-395 0 c-363 0 -398 -2 -436 -19z m1036 -266 l165 -165 -153 0 c-202 0 -192
-9 -192 185 0 80 3 145 8 145 4 0 81 -74 172 -165z m-512 -96 l122 -71 0 -109
c0 -60 3 -109 6 -109 4 0 47 23 96 51 57 33 95 49 106 44 9 -3 68 -35 130 -71
l112 -66 0 -151 0 -152 -68 -37 c-37 -21 -94 -53 -127 -72 l-60 -35 -125 73
-125 72 -3 112 c-1 62 -5 112 -9 112 -3 0 -33 -16 -67 -36 -33 -21 -75 -45
-91 -55 l-31 -18 -124 73 -125 72 0 153 0 153 115 68 c63 37 122 68 130 69 8
0 70 -31 138 -70z m-57 -879 l42 -50 364 0 363 0 0 -204 c0 -173 -2 -207 -16
-220 -14 -14 -82 -16 -604 -16 -522 0 -590 2 -604 16 -14 13 -16 52 -16 270
l0 254 214 0 215 0 42 -50z"/>
<path d="M693 1488 c-40 -23 -73 -45 -73 -48 0 -7 144 -90 155 -90 11 0 155
84 155 90 0 6 -147 90 -157 90 -4 0 -41 -19 -80 -42z"/>
<path d="M580 1288 l0 -93 75 -42 c41 -24 77 -43 80 -43 3 0 5 42 5 93 l0 92
-73 40 c-39 22 -75 42 -79 43 -5 2 -8 -38 -8 -90z"/>
<path d="M878 1334 l-78 -46 0 -90 c0 -67 3 -89 13 -86 6 2 45 21 84 43 l73
40 0 93 c0 50 -3 92 -7 92 -5 -1 -43 -21 -85 -46z"/>
<path d="M1143 1227 c-40 -23 -72 -44 -73 -48 0 -3 35 -25 77 -49 l77 -44 75
41 c42 23 77 45 78 49 3 9 -139 95 -154 93 -4 0 -40 -19 -80 -42z"/>
<path d="M1030 1028 l0 -93 75 -42 c41 -24 77 -43 80 -43 3 0 5 42 5 93 l0 92
-71 40 c-39 22 -75 42 -80 43 -5 2 -9 -38 -9 -90z"/>
<path d="M1335 1076 l-70 -42 -3 -92 c-1 -51 0 -92 4 -92 3 0 40 19 80 42 l74
42 0 93 c0 51 -3 93 -7 92 -5 0 -39 -20 -78 -43z"/>
<path d="M641 484 c-68 -48 -68 -200 1 -248 26 -18 80 -21 109 -6 13 7 19 7
19 0 0 -5 9 -10 20 -10 18 0 20 7 20 76 l0 75 -52 -3 c-49 -3 -53 -5 -53 -28
0 -18 6 -26 23 -28 25 -4 28 -12 10 -30 -19 -19 -55 -14 -72 10 -9 12 -16 43
-16 68 0 25 7 56 16 68 17 25 56 29 74 7 14 -17 56 -20 65 -5 4 6 -7 24 -24
40 -24 24 -38 30 -73 30 -24 0 -54 -7 -67 -16z"/>
<path d="M860 360 l0 -140 85 0 c84 0 85 0 85 25 0 24 -3 25 -55 25 l-55 0 0
115 0 115 -30 0 -30 0 0 -140z"/>
<path d="M1000 476 c0 -21 5 -25 38 -28 l37 -3 3 -113 3 -113 27 3 27 3 3 113
3 112 34 0 c31 0 35 3 35 25 l0 25 -105 0 c-105 0 -105 0 -105 -24z"/>
<path d="M1232 363 l3 -138 28 -3 c27 -3 27 -3 27 57 l0 61 44 0 c47 0 60 8
50 34 -4 9 -21 16 -47 18 -37 3 -42 6 -42 28 0 24 3 25 63 28 58 3 62 4 62 27
0 25 -1 25 -95 25 l-96 0 3 -137z"/>
</g>
</svg>
