<?xml version="1.0" standalone="no"?>
<!DOCTYPE svg PUBLIC "-//W3C//DTD SVG 20010904//EN"
 "http://www.w3.org/TR/2001/REC-SVG-20010904/DTD/svg10.dtd">
<svg version="1.0" xmlns="http://www.w3.org/2000/svg"
 width="612.000000pt" height="612.000000pt" viewBox="0 0 612.000000 612.000000"
 preserveAspectRatio="xMidYMid meet">

<g transform="translate(0.000000,612.000000) scale(0.100000,-0.100000)"
fill="#000000" stroke="none">
<path d="M2945 4913 c-208 -16 -419 -64 -567 -130 -41 -18 -60 -33 -68 -54
-23 -55 16 -119 73 -119 16 0 75 16 131 35 360 123 743 123 1088 -1 145 -52
161 -53 198 -16 39 40 40 83 3 121 -34 33 -228 100 -378 130 -159 32 -342 45
-480 34z"/>
<path d="M2875 4419 c-91 -12 -246 -53 -313 -84 -80 -37 -101 -110 -44 -155
34 -27 59 -25 181 14 248 81 517 74 782 -19 89 -31 90 -31 128 1 24 20 31 34
31 63 0 45 -24 71 -91 99 -179 77 -450 109 -674 81z"/>
<path d="M2950 3911 c-72 -11 -177 -39 -211 -57 -59 -30 -76 -90 -39 -137 31
-39 66 -42 156 -10 68 23 95 27 199 27 106 1 131 -2 214 -28 l93 -30 36 20
c64 35 62 105 -5 150 -73 49 -312 84 -443 65z"/>
<path d="M1378 3810 c-39 -30 -110 -234 -142 -407 -56 -300 -37 -613 56 -902
43 -137 64 -177 98 -191 56 -23 120 16 120 73 0 16 -16 77 -36 136 -123 365
-122 738 2 1085 51 144 53 159 16 196 -36 35 -77 39 -114 10z"/>
<path d="M4655 3808 c-55 -32 -57 -65 -10 -203 125 -366 122 -767 -9 -1116
-20 -53 -36 -107 -36 -119 0 -32 52 -80 89 -80 51 0 78 35 120 155 122 347
139 688 54 1050 -25 104 -57 202 -89 271 -23 48 -76 66 -119 42z"/>
<path d="M1818 3616 c-33 -34 -84 -193 -110 -341 -30 -173 -22 -374 21 -536
41 -160 72 -226 111 -243 41 -17 76 -10 100 22 26 33 25 62 -6 152 -86 251
-86 518 1 778 19 57 35 110 35 117 0 7 -12 27 -26 44 -34 40 -89 43 -126 7z"/>
<path d="M4220 3628 c-70 -26 -74 -58 -26 -208 80 -252 73 -537 -20 -782 -28
-73 -26 -97 9 -135 25 -28 82 -30 112 -5 28 23 66 122 101 257 26 102 28 124
28 295 0 199 -11 272 -60 428 -42 132 -82 173 -144 150z"/>
<path d="M2330 3443 c-46 -17 -74 -68 -106 -193 -37 -147 -16 -399 42 -511 33
-64 97 -77 145 -30 35 36 36 45 2 146 -23 68 -27 98 -27 200 -1 105 3 131 28
213 28 90 29 94 13 128 -20 42 -59 61 -97 47z"/>
<path d="M3717 3420 c-39 -31 -42 -66 -12 -153 46 -139 44 -278 -7 -440 -26
-82 -19 -110 32 -140 34 -19 37 -19 71 -3 42 20 60 53 90 168 51 191 12 504
-69 568 -32 26 -73 25 -105 0z"/>
<path d="M2960 3421 c-105 -34 -191 -107 -236 -199 -25 -51 -28 -68 -28 -162
-1 -97 1 -109 29 -163 34 -68 109 -141 181 -176 67 -34 189 -41 265 -16 124
41 217 137 249 257 18 70 9 193 -19 252 -34 70 -110 148 -178 181 -49 24 -72
29 -148 32 -49 1 -101 -1 -115 -6z"/>
<path d="M2707 2414 c-35 -34 -41 -58 -25 -91 20 -42 70 -69 171 -94 207 -51
512 -11 571 73 25 35 20 76 -13 109 -36 35 -45 36 -146 2 -69 -23 -97 -26
-205 -27 -111 0 -134 3 -203 27 -96 34 -118 34 -150 1z"/>
<path d="M2540 1963 c-35 -13 -60 -47 -60 -82 1 -53 26 -77 116 -110 160 -58
269 -76 469 -76 153 1 195 4 280 24 130 31 251 77 270 104 25 36 19 92 -11
116 -35 27 -57 26 -151 -5 -256 -86 -514 -86 -782 1 -59 19 -110 35 -112 34
-2 0 -11 -3 -19 -6z"/>
<path d="M2319 1491 c-34 -35 -38 -77 -9 -113 33 -43 248 -115 441 -147 166
-28 287 -34 439 -21 170 14 302 40 458 92 142 47 178 76 169 135 -12 74 -82
90 -197 44 -338 -132 -794 -129 -1148 9 -96 37 -116 37 -153 1z"/>
</g>
</svg>
