<?xml version="1.0" standalone="no"?>
<!DOCTYPE svg PUBLIC "-//W3C//DTD SVG 20010904//EN"
 "http://www.w3.org/TR/2001/REC-SVG-20010904/DTD/svg10.dtd">
<svg version="1.0" xmlns="http://www.w3.org/2000/svg"
 width="840.000000pt" height="880.000000pt" viewBox="0 0 840.000000 880.000000"
 preserveAspectRatio="xMidYMid meet">

<g transform="translate(0.000000,880.000000) scale(0.100000,-0.100000)" stroke="none">
<path d="M3940 8393 c-982 -74 -1841 -458 -2534 -1133 -908 -884 -1334 -2123
-1170 -3400 59 -457 231 -980 455 -1383 199 -357 390 -609 683 -903 248 -247
437 -399 721 -576 1260 -787 2888 -798 4165 -29 290 175 549 381 795 633 319
325 546 645 740 1043 271 554 405 1133 405 1752 0 832 -254 1636 -732 2312
l-60 84 88 88 c49 49 93 89 99 89 21 0 221 -300 355 -532 8 -15 24 -18 85 -18
l75 0 -2 943 -3 942 -940 0 -940 0 -3 -72 c-3 -66 -1 -73 20 -86 13 -8 81 -49
153 -91 154 -92 375 -245 375 -261 0 -6 -40 -50 -89 -99 l-89 -89 -84 60
c-665 477 -1495 738 -2328 731 -107 -1 -215 -3 -240 -5z m695 -1013 c485 -74
925 -251 1313 -529 155 -110 265 -206 412 -357 369 -379 599 -784 756 -1331 2
-7 13 -13 24 -13 20 0 20 -3 20 -740 0 -720 -1 -740 -19 -740 -15 0 -22 -12
-31 -52 -23 -96 -111 -338 -170 -468 -95 -210 -216 -409 -370 -610 -94 -122
-387 -415 -510 -510 -478 -368 -1013 -579 -1601 -631 -181 -16 -524 -6 -694
20 -531 80 -1033 298 -1445 627 -108 87 -321 294 -415 404 -267 314 -474 696
-592 1094 -23 75 -43 126 -50 126 -10 0 -13 150 -13 739 0 670 2 740 16 743
11 2 27 40 51 118 263 876 932 1601 1788 1935 224 88 506 159 735 184 52 6
111 13 130 15 19 2 145 3 280 1 186 -3 279 -9 385 -25z"/>
</g>
</svg>
