<?xml version="1.0" standalone="no"?>
<!DOCTYPE svg PUBLIC "-//W3C//DTD SVG 20010904//EN"
 "http://www.w3.org/TR/2001/REC-SVG-20010904/DTD/svg10.dtd">
<svg version="1.0" xmlns="http://www.w3.org/2000/svg"
 width="820.000000pt" height="856.000000pt" viewBox="0 0 820.000000 856.000000"
 preserveAspectRatio="xMidYMid meet">

<g transform="translate(0.000000,856.000000) scale(0.100000,-0.100000)"
fill="#000000" stroke="none">
<path d="M3860 8145 c-682 -83 -1304 -534 -1615 -1170 -143 -293 -194 -540
-197 -950 -2 -311 26 -469 146 -820 107 -315 181 -474 493 -1050 330 -610
1366 -2462 1391 -2487 4 -4 37 45 73 110 37 64 133 234 214 377 601 1060 1150
2058 1365 2480 190 372 332 787 374 1093 18 128 21 381 6 549 -41 463 -237
891 -565 1232 -455 474 -1079 710 -1685 636z m420 -1190 c382 -88 658 -425
677 -825 12 -264 -85 -502 -280 -686 -98 -93 -195 -151 -327 -195 -81 -27
-114 -33 -220 -37 -268 -10 -470 68 -655 253 -176 176 -258 375 -259 625 0
245 78 442 243 614 141 146 311 235 506 266 76 11 231 4 315 -15z"/>
<path d="M3010 2423 c-19 -2 -129 -13 -245 -24 -1377 -134 -2418 -493 -2621
-904 -163 -329 162 -646 916 -896 1604 -531 4486 -530 6080 1 558 186 866 393
942 634 161 506 -919 988 -2598 1160 -335 34 -463 41 -225 11 543 -67 912
-141 1248 -250 519 -167 797 -376 797 -600 0 -384 -862 -727 -2149 -854 -373
-37 -569 -45 -1060 -45 -558 0 -881 18 -1315 75 -1153 149 -1884 469 -1884
825 0 376 823 714 2064 849 80 9 152 17 160 19 19 5 -64 4 -110 -1z"/>
</g>
</svg>
