<?xml version="1.0" standalone="no"?>
<!DOCTYPE svg PUBLIC "-//W3C//DTD SVG 20010904//EN"
 "http://www.w3.org/TR/2001/REC-SVG-20010904/DTD/svg10.dtd">
<svg version="1.0" xmlns="http://www.w3.org/2000/svg"
 width="840.000000pt" height="880.000000pt" viewBox="0 0 840.000000 880.000000"
 preserveAspectRatio="xMidYMid meet">

<g transform="translate(0.000000,880.000000) scale(0.100000,-0.100000)"
stroke="none">
<path d="M3965 8394 c-22 -2 -96 -9 -165 -14 -441 -38 -901 -165 -1307 -360
-211 -102 -315 -160 -504 -286 -591 -390 -1053 -913 -1377 -1560 -212 -423
-343 -881 -394 -1374 -16 -161 -16 -639 0 -800 69 -675 288 -1280 666 -1840
479 -711 1172 -1247 1984 -1536 826 -294 1812 -297 2644 -8 826 287 1541 843
2022 1573 372 562 579 1143 648 1811 16 161 16 638 0 800 -69 674 -289 1281
-666 1840 -168 249 -384 504 -583 687 -655 600 -1462 968 -2313 1053 -108 11
-584 21 -655 14z m531 -674 c432 -41 809 -151 1205 -351 644 -325 1137 -815
1458 -1448 257 -507 370 -972 371 -1521 0 -537 -112 -1006 -360 -1499 -372
-742 -980 -1294 -1765 -1604 -397 -157 -769 -227 -1200 -227 -204 0 -354 12
-535 41 -819 134 -1588 587 -2093 1234 -325 417 -572 974 -662 1490 -43 244
-57 613 -35 865 69 760 424 1516 965 2055 540 539 1292 894 2035 963 136 13
488 14 616 2z"/>
<path d="M4050 7064 c-459 -40 -736 -113 -1060 -281 -491 -254 -919 -682
-1173 -1173 -192 -370 -281 -753 -281 -1210 0 -457 89 -840 281 -1210 290
-560 815 -1043 1378 -1269 509 -203 1112 -243 1662 -110 460 112 871 347 1228
704 594 595 850 1334 764 2200 -58 585 -322 1127 -764 1570 -438 437 -952 692
-1540 761 -122 14 -414 25 -495 18z m472 -688 c475 -75 887 -311 1218 -701
191 -225 324 -481 395 -760 47 -185 60 -293 60 -515 0 -222 -13 -330 -60 -515
-84 -329 -242 -607 -494 -869 -211 -218 -449 -380 -719 -487 -99 -39 -310 -93
-432 -110 -122 -17 -458 -17 -580 0 -122 17 -333 71 -432 110 -596 237 -1071
771 -1217 1369 -43 178 -56 287 -56 502 0 215 13 324 56 502 98 401 335 764
693 1063 262 218 625 376 957 414 52 6 108 13 124 15 62 9 394 -4 487 -18z"/>
<path d="M3970 5715 c-288 -49 -537 -185 -747 -409 -138 -148 -237 -313 -293
-489 -44 -137 -60 -250 -60 -417 0 -167 16 -280 60 -417 79 -248 253 -486 479
-656 233 -175 484 -257 791 -257 376 0 673 123 940 390 191 190 308 401 365
655 24 107 30 378 12 500 -43 277 -167 515 -377 725 -206 207 -443 331 -713
375 -111 18 -351 18 -457 0z"/>
</g>
</svg>
