<?xml version="1.0" standalone="no"?>
<!DOCTYPE svg PUBLIC "-//W3C//DTD SVG 20010904//EN"
 "http://www.w3.org/TR/2001/REC-SVG-20010904/DTD/svg10.dtd">
<svg version="1.0" xmlns="http://www.w3.org/2000/svg"
 width="200.000000pt" height="200.000000pt" viewBox="0 0 200.000000 200.000000"
 preserveAspectRatio="xMidYMid meet">

<g transform="translate(0.000000,200.000000) scale(0.100000,-0.100000)"
fill="#000000" stroke="none">
<path d="M544 1852 c-156 -76 -288 -209 -363 -365 -62 -128 -75 -191 -76 -350
0 -133 1 -140 23 -157 16 -14 29 -17 45 -11 21 8 22 13 23 152 1 162 16 225
82 354 56 107 181 228 302 291 76 39 96 54 98 73 4 24 -19 51 -43 51 -6 0 -47
-17 -91 -38z"/>
<path d="M610 1677 c-136 -67 -264 -230 -304 -383 -18 -70 -22 -245 -6 -275
12 -22 64 -26 77 -6 4 6 6 53 5 102 -3 104 13 175 59 268 42 82 138 176 222
216 81 38 94 53 79 86 -16 34 -52 32 -132 -8z"/>
<path d="M701 1513 c-144 -71 -246 -253 -227 -406 6 -57 20 -77 51 -77 35 0
43 18 47 115 2 69 9 101 26 137 31 62 87 119 153 154 58 31 72 59 44 88 -22
22 -32 20 -94 -11z"/>
<path d="M1227 1460 c-21 -6 -52 -17 -69 -26 -22 -11 -43 -14 -76 -9 -84 13
-105 -5 -273 -227 -83 -109 -155 -213 -160 -230 -11 -39 4 -98 30 -122 16 -14
17 -23 8 -69 -19 -107 5 -249 58 -329 31 -47 318 -295 365 -316 50 -22 144
-18 212 8 308 116 600 592 574 934 -7 97 -47 190 -98 229 -18 14 -117 56 -218
93 -195 70 -273 84 -353 64z m-33 -111 c77 -34 149 -68 159 -77 39 -34 24 -67
-139 -297 -85 -121 -163 -228 -173 -238 -9 -10 -33 -20 -52 -23 -31 -5 -46 3
-174 96 -140 101 -161 124 -149 164 8 28 291 403 318 422 34 23 61 17 210 -47z
m372 -136 c83 -284 -133 -699 -426 -820 -30 -12 -70 -23 -87 -23 -41 0 -48 23
-40 125 9 96 19 121 54 128 16 3 40 15 54 26 14 11 95 120 180 243 l154 223 0
58 c0 57 0 58 40 77 22 11 43 20 47 20 4 0 15 -26 24 -57z"/>
</g>
</svg>
