<?xml version="1.0" standalone="no"?>
<!DOCTYPE svg PUBLIC "-//W3C//DTD SVG 20010904//EN"
 "http://www.w3.org/TR/2001/REC-SVG-20010904/DTD/svg10.dtd">
<svg version="1.0" xmlns="http://www.w3.org/2000/svg"
 width="225.000000pt" height="225.000000pt" viewBox="0 0 225.000000 225.000000"
 preserveAspectRatio="xMidYMid meet">

<g transform="translate(0.000000,225.000000) scale(0.100000,-0.100000)"
fill="#000000" stroke="none">
<path d="M822 2095 c-70 -19 -87 -29 -145 -84 -59 -55 -95 -122 -109 -202 -7
-38 -16 -63 -28 -69 -31 -16 -89 -114 -105 -175 -22 -87 -22 -793 0 -880 16
-61 74 -159 105 -175 12 -6 21 -31 28 -69 15 -83 52 -150 116 -209 91 -83 113
-87 441 -87 328 0 350 4 441 87 64 59 101 126 116 209 7 38 16 63 28 69 31 16
89 114 105 175 12 48 15 130 15 440 0 310 -3 392 -15 440 -16 61 -74 159 -105
175 -12 6 -21 31 -28 69 -15 83 -52 150 -116 208 -90 83 -108 86 -421 90 -213
2 -281 -1 -323 -12z m579 -136 c62 -21 129 -86 129 -126 0 -4 -182 -8 -405 -8
-223 0 -405 4 -405 8 0 38 66 104 125 125 42 15 512 15 556 1z m143 -281 c53
-16 118 -81 134 -134 17 -58 17 -780 0 -838 -16 -53 -81 -118 -134 -134 -58
-17 -780 -17 -838 0 -53 16 -118 81 -134 134 -17 58 -17 780 0 838 15 50 80
118 128 133 52 16 789 17 844 1z m-14 -1261 c0 -40 -67 -105 -129 -126 -46
-15 -506 -15 -552 0 -62 21 -129 86 -129 126 0 4 182 8 405 8 223 0 405 -4
405 -8z"/>
<path d="M998 1424 c-83 -20 -154 -59 -218 -120 -123 -117 -147 -264 -43 -264
35 0 56 21 72 71 18 57 75 115 149 151 62 31 74 33 167 33 93 0 105 -2 167
-33 74 -36 131 -94 149 -151 16 -51 37 -71 74 -71 142 0 30 251 -153 344 -105
53 -246 69 -364 40z"/>
<path d="M1013 1222 c-130 -46 -213 -161 -163 -225 35 -44 82 -33 119 27 64
102 246 100 315 -4 39 -60 89 -66 121 -16 23 35 12 75 -36 130 -82 93 -236
131 -356 88z"/>
<path d="M1086 989 c-31 -25 -34 -61 -6 -89 39 -39 110 -11 110 44 0 25 -41
66 -65 66 -7 0 -24 -9 -39 -21z"/>
</g>
</svg>
